<?xml version="1.0" standalone="no"?>
<!DOCTYPE svg PUBLIC "-//W3C//DTD SVG 20010904//EN"
 "http://www.w3.org/TR/2001/REC-SVG-20010904/DTD/svg10.dtd">
<svg version="1.0" xmlns="http://www.w3.org/2000/svg"
 width="140.000000pt" height="140.000000pt" viewBox="0 0 140.000000 140.000000"
 preserveAspectRatio="xMidYMid meet">

<g transform="translate(0.000000,140.000000) scale(0.100000,-0.100000)"
fill="#000000" stroke="none">
<path d="M427 873 c-4 -3 -7 -69 -7 -145 l0 -138 40 0 40 0 0 70 c0 39 4 70 8
70 5 0 17 -18 27 -40 16 -36 22 -40 55 -40 33 0 39 4 55 40 10 22 22 40 27 40
4 0 8 -31 8 -70 l0 -70 40 0 41 0 -3 143 -3 142 -42 3 -41 3 -38 -70 c-21 -39
-41 -71 -44 -71 -3 0 -22 32 -43 70 -37 68 -39 70 -76 70 -21 0 -41 -3 -44 -7z"/>
<path d="M835 748 c-27 -73 -50 -139 -53 -145 -3 -9 8 -13 37 -13 35 0 43 4
51 25 8 22 15 25 60 25 45 0 52 -3 60 -25 8 -21 16 -25 51 -25 29 0 40 4 37
13 -3 6 -27 72 -54 145 l-49 132 -45 0 -46 0 -49 -132z m111 -3 c19 -45 19
-45 -17 -45 -24 0 -30 3 -25 16 3 9 9 27 12 40 8 32 12 30 30 -11z"/>
</g>
</svg>
